Patient4_TMGait_0pt3_01_right_13_GRF.mot
version=1
nRows=78
nColumns=19
inDegrees=no
endheader
time	F1x	F1y	F1z	M1x	M1y	M1z	F2x	F2y	F2z	M2x	M2y	M2z	EC1x	EC1y	EC1z	EC2x	EC2y	EC2z
23.23	-1.7642	821.6948	54.1939	-297.3708	-49.6001	774.4886	5.5143	3.4515	-1.5301	0.9839	2.1694	5.0871	-0.0592	0.0182	-0.0073	-0.0462	0.0165	0.9585
23.2481	-3.0342	837.7889	53.72	-303.6656	-49.4594	787.5274	3.6468	3.0273	-1.0687	0.91064	1.5401	4.1578	-0.0592	0.0182	-0.0073	-0.0462	0.0165	0.9585
23.2663	-4.3029	856.3446	53.4309	-310.8661	-49.4017	802.3582	2.0614	2.6776	-0.67119	0.85218	0.99449	3.3878	-0.0592	0.0182	-0.0073	-0.0462	0.0165	0.9585
23.2844	-5.3464	875.599	53.4155	-318.2816	-49.4366	817.3843	0.85181	2.4358	-0.3649	0.81603	0.57035	2.8313	-0.0592	0.0182	-0.0073	-0.0462	0.0165	0.9585
23.3026	-5.9273	893.2142	53.7146	-325.0147	-49.5407	830.5026	0.012545	2.2945	-0.15029	0.79956	0.27106	2.4834	-0.0592	0.0182	-0.0073	-0.0462	0.0165	0.9585
23.3207	-5.8623	906.5152	54.3101	-330.0567	-49.6612	839.3393	-0.51385	2.2199	-0.014549	0.79313	0.083832	2.2953	-0.0592	0.0182	-0.0073	-0.0462	0.0165	0.9585
23.3389	-5.0683	912.8861	55.1017	-332.4388	-49.704	841.6172	-0.80237	2.1575	0.060757	0.7811	-0.014621	2.1849	-0.0592	0.0182	-0.0073	-0.0462	0.0165	0.9585
23.357	-3.5752	910.3115	55.8963	-331.4302	-49.5255	835.6417	-0.92798	2.0356	0.097771	0.74109	-0.0536	2.0549	-0.0592	0.0182	-0.0073	-0.0462	0.0165	0.9585
23.3751	-1.5092	897.8403	56.4488	-326.7052	-48.9634	820.7025	-0.95476	1.7635	0.11887	0.64333	-0.063107	1.8008	-0.0592	0.0182	-0.0073	-0.0462	0.0165	0.9585
23.3933	0.96577	875.8578	56.5294	-318.4364	-47.8752	797.2734	-0.92827	1.2382	0.14222	0.45283	-0.069898	1.3084	-0.0592	0.0182	-0.0073	-0.0462	0.0165	0.9585
23.4114	3.7013	846.0913	55.9905	-307.2911	-46.1775	766.9903	-0.87634	0.36372	0.18066	0.13644	-0.093644	0.47212	-0.0592	0.0182	-0.0073	-0.0462	0.0165	0.9585
23.4296	6.6048	811.3277	54.8238	-294.3234	-43.8877	732.3785	-0.81268	-0.934	0.24181	-0.3315	-0.14776	-0.79213	-0.0592	0.0182	-0.0073	-0.0462	0.0165	0.9585
23.4477	9.6564	774.978	53.1721	-280.8064	-41.129	696.4381	-0.73701	-2.6785	0.32852	-0.95902	-0.23942	-2.522	-0.0592	0.0182	-0.0073	-0.0462	0.0165	0.9585
23.4659	12.9039	740.5941	51.2868	-268.0526	-38.0942	662.2175	-0.63462	-4.7903	0.43605	-1.717	-0.36868	-4.6456	-0.0592	0.0182	-0.0073	-0.0462	0.0165	0.9585
23.484	16.4371	711.3662	49.4586	-257.2316	-34.9949	632.395	-0.47919	-7.0213	0.54405	-2.515	-0.52316	-6.9158	-0.0592	0.0182	-0.0073	-0.0462	0.0165	0.9585
23.5021	20.3688	689.6455	47.9597	-249.1985	-32.0144	608.884	-0.23432	-8.8795	0.61099	-3.1739	-0.67136	-8.8438	-0.0592	0.0182	-0.0073	-0.0462	0.0165	0.9585
23.5203	24.8188	676.5877	47.0008	-244.3641	-29.2783	592.5628	0.13701	-9.5562	0.57312	-3.3974	-0.75992	-9.618	-0.0592	0.0182	-0.0073	-0.0462	0.0165	0.9585
23.5384	29.8512	671.9304	46.6982	-242.613	-26.8548	583.1425	0.66255	-7.8619	0.34356	-2.7509	-0.70752	-8.0346	-0.0592	0.0182	-0.0073	-0.0462	0.0165	0.9585
23.5566	35.389	673.9569	47.0735	-243.2909	-24.7892	579.1887	1.3484	-2.2071	-0.18558	-0.65633	-0.40094	-2.481	-0.0592	0.0182	-0.0073	-0.0462	0.0165	0.9585
23.5747	41.1671	679.6952	48.079	-245.2756	-23.1449	578.3229	2.1611	9.3242	-1.1333	3.5786	0.29771	8.9949	-0.0592	0.0182	-0.0073	-0.0462	0.0165	0.9585
23.5929	46.7366	685.3969	49.5987	-247.1602	-22.0025	577.6288	3.0015	28.7574	-2.6091	10.6805	1.5377	28.4699	-0.0592	0.0182	-0.0073	-0.0462	0.0165	0.9585
23.611	51.5149	687.1401	51.4292	-247.4873	-21.4221	574.1334	3.6711	57.7867	-4.6802	21.2499	3.4612	57.7019	-0.0592	0.0182	-0.0073	-0.0462	0.0165	0.9585
23.6291	54.8921	681.477	53.2725	-245.0012	-21.3974	565.2938	3.8368	97.0472	-7.3155	35.4956	6.1616	97.3941	-0.0592	0.0182	-0.0073	-0.0462	0.0165	0.9585
23.6473	56.3787	666.1143	54.7479	-238.9043	-21.8151	549.4897	2.915	145.2239	-10.3705	52.9117	9.702	146.2965	-0.0592	0.0182	-0.0073	-0.0462	0.0165	0.9585
23.6654	55.7396	640.3985	55.453	-229.0287	-22.4543	526.3445	0.24697	198.5172	-13.7143	72.08	14.1707	200.6526	-0.0592	0.0182	-0.0073	-0.0462	0.0165	0.9585
23.6836	53.1095	605.4498	55.0801	-215.866	-23.0351	496.7551	-4.1543	251.76	-17.3461	91.0875	19.5433	255.2568	-0.0592	0.0182	-0.0073	-0.0462	0.0165	0.9585
23.7017	49.0145	563.8796	53.5292	-200.4342	-23.2909	462.6365	-9.7178	302.0651	-21.1155	108.8578	25.4645	307.1587	-0.0592	0.0182	-0.0073	-0.0462	0.0165	0.9585
23.7199	44.1774	518.7499	50.935	-183.8834	-23.0539	426.1483	-15.732	348.8852	-24.8291	125.1823	31.4929	355.7933	-0.0592	0.0182	-0.0073	-0.0462	0.0165	0.9585
23.738	39.2149	472.5079	47.5369	-167.1089	-22.2645	388.9651	-21.6195	392.0902	-28.3716	140.0158	37.321	401.0224	-0.0592	0.0182	-0.0073	-0.0462	0.0165	0.9585
23.7561	34.4883	426.8089	43.5687	-150.6936	-20.9561	352.2228	-26.979	431.1477	-31.6285	153.1828	42.7037	442.2768	-0.0592	0.0182	-0.0073	-0.0462	0.0165	0.9585
23.7743	30.1315	382.8892	39.2386	-135.0512	-19.2323	316.8241	-31.5237	465.2301	-34.5269	164.4156	47.4687	478.6659	-0.0592	0.0182	-0.0073	-0.0462	0.0165	0.9585
23.7924	26.1461	341.9229	34.7503	-120.5611	-17.2448	283.6817	-35.0791	493.6005	-37.0096	173.493	51.4891	509.3775	-0.0592	0.0182	-0.0073	-0.0462	0.0165	0.9585
23.8106	22.5079	305.1259	30.3074	-107.615	-15.1569	253.7823	-37.64	515.8966	-38.9828	180.3393	54.6539	533.9757	-0.0592	0.0182	-0.0073	-0.0462	0.0165	0.9585
23.8287	19.2441	273.5944	26.1056	-96.5655	-13.1123	228.0466	-39.3426	532.2716	-40.3292	185.0629	56.8779	552.5378	-0.0592	0.0182	-0.0073	-0.0462	0.0165	0.9585
23.8469	16.4661	247.9274	22.3277	-87.5939	-11.2183	206.9972	-40.3554	543.4055	-40.9709	187.9477	58.1328	565.6621	-0.0592	0.0182	-0.0073	-0.0462	0.0165	0.9585
23.865	14.342	227.8393	19.1229	-80.5744	-9.5352	190.4231	-40.839	550.3172	-40.9646	189.3782	58.5258	574.2925	-0.0592	0.0182	-0.0073	-0.0462	0.0165	0.9585
23.8831	12.9811	212.0452	16.5661	-75.0366	-8.0854	177.2849	-40.9562	554.1761	-40.5242	189.7737	58.3231	579.538	-0.0592	0.0182	-0.0073	-0.0462	0.0165	0.9585
23.9013	12.3201	198.5686	14.6258	-70.2766	-6.8685	165.9755	-40.8682	556.2957	-39.9345	189.5949	57.8616	582.6699	-0.0592	0.0182	-0.0073	-0.0462	0.0165	0.9585
23.9194	12.1098	185.3241	13.1676	-65.5638	-5.8681	154.7994	-40.6873	558.1746	-39.4744	189.3666	57.454	585.1443	-0.0592	0.0182	-0.0073	-0.0462	0.0165	0.9585
23.9376	11.9949	170.6951	12.0096	-60.3422	-5.0684	142.446	-40.4527	561.445	-39.3691	189.6626	57.3341	588.5433	-0.0592	0.0182	-0.0073	-0.0462	0.0165	0.9585
23.9557	11.6306	153.8747	10.9921	-54.3444	-4.4646	128.2733	-40.1657	567.7449	-39.7701	191.0597	57.6521	594.4506	-0.0592	0.0182	-0.0073	-0.0462	0.0165	0.9585
23.9739	10.7947	134.8771	10.0143	-47.5897	-4.0547	112.314	-39.8132	578.5108	-40.7549	194.0644	58.4826	604.2433	-0.0592	0.0182	-0.0073	-0.0462	0.0165	0.9585
23.992	9.4205	114.3353	9.024	-40.3063	-3.8176	95.1078	-39.3789	594.724	-42.3395	199.024	59.8427	618.8512	-0.0592	0.0182	-0.0073	-0.0462	0.0165	0.9585
24.0101	7.5699	93.221	7.9827	-32.8384	-3.6958	77.476	-38.8465	616.7133	-44.4866	206.0592	61.6974	638.5724	-0.0592	0.0182	-0.0073	-0.0462	0.0165	0.9585
24.0283	5.4134	72.6212	6.8581	-25.5703	-3.5993	60.332	-38.1808	644.0525	-47.0872	215.0319	63.9371	662.963	-0.0592	0.0182	-0.0073	-0.0462	0.0165	0.9585
24.0464	3.226	53.5569	5.6432	-18.8603	-3.4252	44.5258	-37.3079	675.518	-49.9649	225.5345	66.3684	690.7939	-0.0592	0.0182	-0.0073	-0.0462	0.0165	0.9585
24.0646	1.3199	36.8824	4.3713	-13.0054	-3.0911	30.7554	-36.127	709.1844	-52.8974	236.925	68.737	720.153	-0.0592	0.0182	-0.0073	-0.0462	0.0165	0.9585
24.0827	-0.044326	23.2021	3.1184	-8.2119	-2.5683	19.5014	-34.5303	742.7075	-55.6374	248.4202	70.7549	748.7374	-0.0592	0.0182	-0.0073	-0.0462	0.0165	0.9585
24.1009	-0.77874	12.8053	1.9914	-4.5757	-1.9147	10.9744	-32.4286	773.7654	-57.9475	259.2405	72.1439	774.2928	-0.0592	0.0182	-0.0073	-0.0462	0.0165	0.9585
24.119	-1.0379	5.6206	1.0843	-2.0665	-1.2616	5.0929	-29.7711	800.5519	-59.6442	268.7714	72.687	795.1065	-0.0592	0.0182	-0.0073	-0.0462	0.0165	0.9585
24.1371	-1.0004	1.1935	0.42619	-0.5216	-0.70165	1.47	-26.559	822.1229	-60.645	276.6732	72.2806	810.352	-0.0592	0.0182	-0.0073	-0.0462	0.0165	0.9585
24.1553	-0.80426	-1.1084	-0.0037705	0.28257	-0.27199	-0.41859	-22.8593	838.4315	-60.9813	282.8863	70.9595	820.1282	-0.0592	0.0182	-0.0073	-0.0462	0.0165	0.9585
24.1734	-0.54927	-1.9309	-0.25243	0.5726	0.028572	-1.1016	-18.8223	849.9798	-60.7817	287.5109	68.8872	825.125	-0.0592	0.0182	-0.0073	-0.0462	0.0165	0.9585
24.1916	-0.2993	-1.839	-0.37011	0.54618	0.21633	-1.0356	-14.6867	857.3161	-60.2429	290.6434	66.3315	826.1178	-0.0592	0.0182	-0.0073	-0.0462	0.0165	0.9585
24.2097	-0.090193	-1.2819	-0.40213	0.36127	0.31418	-0.59183	-10.7313	860.6775	-59.5878	292.2728	63.6135	823.5794	-0.0592	0.0182	-0.0073	-0.0462	0.0165	0.9585
24.2279	0.063866	-0.59853	-0.38462	0.13572	0.34787	-0.055485	-7.1839	859.9393	-59.0006	292.2915	61.0114	817.5956	-0.0592	0.0182	-0.0073	-0.0462	0.0165	0.9585
24.246	0.16042	-0.029002	-0.34637	-0.046496	0.34438	0.36641	-4.1389	854.8659	-58.5637	290.599	58.6707	808.0565	-0.0592	0.0182	-0.0073	-0.0462	0.0165	0.9585
24.2641	0.2026	0.26394	-0.30831	-0.12665	0.32656	0.52454	-1.5389	845.4324	-58.2539	287.2131	56.5898	794.94	-0.0592	0.0182	-0.0073	-0.0462	0.0165	0.9585
24.2823	0.19581	0.17372	-0.28301	-0.064193	0.309	0.31172	0.78227	832.0168	-57.9753	282.3241	54.6592	778.512	-0.0592	0.0182	-0.0073	-0.0462	0.0165	0.9585
24.3004	0.14742	-0.35791	-0.27674	0.16602	0.29728	-0.33671	3.0192	815.4213	-57.5949	276.2827	52.7167	759.3787	-0.0592	0.0182	-0.0073	-0.0462	0.0165	0.9585
24.3186	0.066925	-1.3409	-0.28986	0.57075	0.29229	-1.4374	5.3393	796.8029	-56.9872	269.5605	50.6061	738.4595	-0.0592	0.0182	-0.0073	-0.0462	0.0165	0.9585
24.3367	-0.028336	-2.7183	-0.31788	1.1294	0.29249	-2.9349	7.86	777.5527	-56.0706	262.6981	48.2179	716.8999	-0.0592	0.0182	-0.0073	-0.0462	0.0165	0.9585
24.3549	-0.11362	-4.3296	-0.35392	1.7797	0.29845	-4.6689	10.6474	759.114	-54.8096	256.2376	45.4974	695.9153	-0.0592	0.0182	-0.0073	-0.0462	0.0165	0.9585
24.373	-0.15569	-5.8653	-0.37803	2.3975	0.30561	-6.3233	13.7223	742.7648	-53.2133	250.6474	42.441	676.5943	-0.0592	0.0182	-0.0073	-0.0462	0.0165	0.9585
24.3911	-0.107	-6.8121	-0.36277	2.7749	0.30392	-7.3586	17.0747	729.4548	-51.3254	246.2659	39.0842	659.758	-0.0592	0.0182	-0.0073	-0.0462	0.0165	0.9585
24.4093	0.092531	-6.3935	-0.27461	2.5981	0.28092	-6.9547	20.6627	719.6772	-49.2145	243.2562	35.4933	645.8567	-0.0592	0.0182	-0.0073	-0.0462	0.0165	0.9585
24.4274	0.5136	-3.5397	-0.070584	1.4339	0.21838	-3.9824	24.4139	713.3332	-46.9837	241.5558	31.7741	634.8581	-0.0592	0.0182	-0.0073	-0.0462	0.0165	0.9585
24.4456	1.2285	3.0906	0.29763	-1.2596	0.09339	2.9702	28.2028	709.6435	-44.7764	240.8437	28.0868	626.1885	-0.0592	0.0182	-0.0073	-0.0462	0.0165	0.9585
24.4637	2.293	14.9974	0.87564	-6.088	-0.11975	15.4897	31.817	707.174	-42.757	240.5525	24.6404	618.7649	-0.0592	0.0182	-0.0073	-0.0462	0.0165	0.9585
24.4819	3.7145	33.5949	1.6948	-13.6217	-0.45098	35.0884	34.9503	704.0092	-41.0636	239.9369	21.6567	611.14	-0.0592	0.0182	-0.0073	-0.0462	0.0165	0.9585
24.5	5.3274	59.8365	2.7631	-24.2466	-0.97278	62.8057	37.2439	698.0199	-39.7641	238.1796	19.3204	601.7085	-0.0592	0.0182	-0.0073	-0.0462	0.0165	0.9585
24.5181	6.6099	93.6566	4.0544	-37.9386	-1.8611	98.6064	38.3526	687.1741	-38.831	234.5146	17.7382	588.9389	-0.0592	0.0182	-0.0073	-0.0462	0.0165	0.9585
24.5363	6.6911	133.4436	5.5328	-54.0463	-3.416	140.8336	38.0147	669.8675	-38.1407	228.3562	16.914	571.617	-0.0592	0.0182	-0.0073	-0.0462	0.0165	0.9585
24.5544	5.1764	176.1221	7.2685	-71.311	-5.8578	186.2528	36.1565	645.3208	-37.5099	219.4477	16.7448	549.1298	-0.0592	0.0182	-0.0073	-0.0462	0.0165	0.9585
24.5726	2.4515	218.1725	9.4289	-88.2989	-9.2097	231.0584	32.9932	613.9101	-36.7502	207.9826	17.021	521.7101	-0.0592	0.0182	-0.0073	-0.0462	0.0165	0.9585
24.5907	-0.91965	257.8037	11.9622	-104.2861	-13.1986	273.2472	29.0297	577.117	-35.7118	194.5747	17.4556	490.398	-0.0592	0.0182	-0.0073	-0.0462	0.0165	0.9585
24.6089	-4.5662	295.4191	14.6098	-119.446	-17.4068	313.1867	24.9104	536.9735	-34.3	180.041	17.7487	456.6321	-0.0592	0.0182	-0.0073	-0.0462	0.0165	0.9585
24.627	-8.244	332.2247	17.156	-134.2738	-21.5141	352.1156	21.1971	495.3787	-32.4565	165.1398	17.6476	421.7605	-0.0592	0.0182	-0.0073	-0.0462	0.0165	0.9585
